<svg aria-hidden="true" style="position: absolute; width: 0; height: 0; overflow: hidden;" version="1.1" xmlns="http://www.w3.org/2000/svg" xmlns:xlink="http://www.w3.org/1999/xlink">
<defs>
<symbol id="icon-logo" viewBox="0 0 192 32">
<path d="M15.742 4.84l15.393-4.535-4.492 15.437 4.492 15.393-15.393-4.492-15.437 4.492 4.535-15.393-4.535-15.437 15.437 4.535z"></path>
<path d="M42.784 27.112v-24.488h9.725c1.493 0 2.822 0.303 3.988 0.91 1.189 0.583 2.111 1.423 2.764 2.519 0.676 1.073 1.015 2.367 1.015 3.883v0.455c0 1.516-0.35 2.822-1.049 3.918-0.676 1.096-1.598 1.936-2.764 2.519s-2.484 0.875-3.953 0.875h-5.947v9.41h-3.778zM46.562 14.273h5.562c1.329 0 2.391-0.35 3.183-1.049s1.189-1.656 1.189-2.869v-0.35c0-1.236-0.396-2.204-1.189-2.904s-1.854-1.049-3.183-1.049h-5.562v8.221z"></path>
<path d="M71.57 27.601c-1.726 0-3.265-0.35-4.618-1.049-1.329-0.723-2.379-1.749-3.148-3.078s-1.154-2.904-1.154-4.723v-0.525c0-1.819 0.385-3.382 1.154-4.688 0.77-1.329 1.819-2.355 3.148-3.078 1.353-0.723 2.892-1.084 4.618-1.084s3.265 0.361 4.618 1.084c1.353 0.723 2.414 1.749 3.183 3.078 0.77 1.306 1.154 2.869 1.154 4.688v0.525c0 1.819-0.385 3.393-1.154 4.723s-1.831 2.355-3.183 3.078c-1.353 0.7-2.892 1.049-4.618 1.049zM71.57 24.383c1.586 0 2.869-0.501 3.848-1.504 1.003-1.026 1.504-2.437 1.504-4.233v-0.315c0-1.796-0.49-3.195-1.469-4.198-0.979-1.026-2.274-1.539-3.883-1.539-1.563 0-2.845 0.513-3.848 1.539-0.979 1.003-1.469 2.402-1.469 4.198v0.315c0 1.796 0.49 3.207 1.469 4.233 1.003 1.003 2.286 1.504 3.848 1.504z"></path>
<path d="M92.078 27.601c-2.192 0-4.011-0.49-5.457-1.469s-2.332-2.461-2.659-4.443l3.358-0.805c0.187 0.956 0.501 1.714 0.945 2.274s0.991 0.956 1.644 1.189c0.676 0.233 1.399 0.35 2.169 0.35 1.143 0 2.017-0.222 2.624-0.665 0.63-0.443 0.945-1.015 0.945-1.714s-0.292-1.213-0.875-1.539-1.446-0.595-2.589-0.805l-1.189-0.21c-1.166-0.21-2.227-0.513-3.183-0.909s-1.714-0.945-2.274-1.644c-0.56-0.7-0.839-1.597-0.839-2.694 0-1.633 0.606-2.892 1.819-3.778 1.213-0.91 2.822-1.364 4.828-1.364 1.936 0 3.522 0.443 4.758 1.329 1.259 0.863 2.076 2.041 2.449 3.533l-3.358 0.945c-0.21-1.049-0.653-1.784-1.329-2.204-0.676-0.443-1.516-0.665-2.519-0.665-0.979 0-1.749 0.187-2.309 0.56-0.56 0.35-0.839 0.851-0.839 1.504 0 0.7 0.268 1.213 0.805 1.539 0.56 0.326 1.306 0.571 2.239 0.735l1.224 0.21c1.236 0.21 2.367 0.501 3.393 0.875s1.831 0.909 2.414 1.609c0.606 0.7 0.91 1.633 0.91 2.799 0 1.726-0.641 3.067-1.924 4.023s-3.009 1.434-5.177 1.434z"></path>
<path d="M103.391 27.112v-17.246h3.603v17.246h-3.603zM105.21 7.521c-0.7 0-1.294-0.222-1.784-0.665-0.466-0.466-0.7-1.061-0.7-1.784s0.233-1.306 0.7-1.749c0.49-0.466 1.085-0.7 1.784-0.7 0.723 0 1.318 0.233 1.784 0.7 0.466 0.443 0.7 1.026 0.7 1.749s-0.233 1.318-0.7 1.784c-0.466 0.443-1.061 0.665-1.784 0.665z"></path>
<path d="M118.814 27.112c-1.049 0-1.889-0.315-2.519-0.945-0.606-0.63-0.91-1.469-0.91-2.519v-10.74h-4.758v-3.043h4.758v-5.702h3.603v5.702h5.143v3.043h-5.143v10.11c0 0.7 0.327 1.049 0.98 1.049h3.603v3.043h-4.758z"></path>
<path d="M128.364 27.112v-17.246h3.603v17.246h-3.603zM130.183 7.521c-0.7 0-1.294-0.222-1.784-0.665-0.466-0.466-0.7-1.061-0.7-1.784s0.233-1.306 0.7-1.749c0.49-0.466 1.085-0.7 1.784-0.7 0.723 0 1.318 0.233 1.784 0.7 0.466 0.443 0.7 1.026 0.7 1.749s-0.233 1.318-0.7 1.784c-0.466 0.443-1.061 0.665-1.784 0.665z"></path>
<path d="M141.303 27.112l-5.807-17.246h3.813l4.583 14.588h0.56l4.583-14.588h3.812l-5.807 17.246h-5.737z"></path>
<path d="M162.955 27.426c-1.305 0-2.472-0.291-3.497-0.875-1.027-0.583-1.831-1.411-2.415-2.484-0.583-1.073-0.873-2.355-0.873-3.848v-10.355h3.603v10.11c0 1.493 0.373 2.6 1.12 3.323 0.745 0.7 1.784 1.049 3.113 1.049 1.469 0 2.647-0.49 3.533-1.469 0.909-1.003 1.364-2.437 1.364-4.303v-8.711h3.603v17.246h-3.533v-2.589h-0.56c-0.325 0.7-0.909 1.364-1.748 1.994-0.84 0.606-2.076 0.909-3.709 0.909z"></path>
<path d="M184.899 27.601c-2.192 0-4.012-0.49-5.457-1.469-1.447-0.98-2.332-2.461-2.659-4.443l3.359-0.805c0.187 0.956 0.501 1.714 0.944 2.274s0.991 0.956 1.644 1.189c0.676 0.233 1.4 0.35 2.169 0.35 1.143 0 2.017-0.222 2.624-0.665 0.629-0.443 0.944-1.015 0.944-1.714s-0.292-1.213-0.875-1.539-1.445-0.595-2.588-0.805l-1.189-0.21c-1.167-0.21-2.228-0.513-3.184-0.909s-1.715-0.945-2.273-1.644c-0.56-0.7-0.84-1.597-0.84-2.694 0-1.633 0.607-2.892 1.819-3.778 1.213-0.91 2.823-1.364 4.828-1.364 1.936 0 3.521 0.443 4.757 1.329 1.26 0.863 2.076 2.041 2.449 3.533l-3.359 0.945c-0.209-1.049-0.653-1.784-1.329-2.204-0.676-0.443-1.516-0.665-2.519-0.665-0.98 0-1.749 0.187-2.309 0.56-0.56 0.35-0.839 0.851-0.839 1.504 0 0.7 0.268 1.213 0.804 1.539 0.56 0.326 1.307 0.571 2.239 0.735l1.224 0.21c1.237 0.21 2.368 0.501 3.393 0.875 1.027 0.373 1.832 0.909 2.415 1.609 0.607 0.7 0.909 1.633 0.909 2.799 0 1.726-0.641 3.067-1.924 4.023s-3.008 1.434-5.177 1.434z"></path>
</symbol>
<symbol id="icon-location" viewBox="0 0 22 32">
<path d="M21.832 11.609c-0.209 5.093-8.82 16.998-10.873 19.785-0.21 0.293-0.649 0.272-0.838-0.042-1.299-2.096-5.594-9.138-7.835-14.839-0.901-2.264-1.467-4.317-1.404-5.764 0.23-5.785 5.112-10.291 10.894-10.060 5.782 0.272 10.287 5.135 10.056 10.92z"></path>
<path d="M14.745 14.587c1.873-1.874 1.873-4.913 0-6.788s-4.911-1.874-6.785 0-1.874 4.913 0 6.788c1.874 1.874 4.911 1.874 6.785 0z"></path>
</symbol>
<symbol id="icon-play" viewBox="0 0 34 32">
<path d="M6.335 29.392l-4.752-25.767c-0.226-1.32 0.98-2.414 2.263-2.075l28.094 7.96c1.433 0.415 1.772 2.264 0.603 3.169l-23.381 17.807c-1.018 0.83-2.564 0.264-2.828-1.094z"></path>
</symbol>
<symbol id="icon-share" viewBox="0 0 34 32">
<path d="M27.743 19.241c-1.81 0-3.394 0.868-4.45 2.226l-10.898-4.263c0-0.151 0.038-0.264 0.038-0.415 0-0.264-0.038-0.528-0.075-0.792l11.162-5.168c1.018 1.169 2.527 1.924 4.224 1.962 3.092 0 5.656-2.528 5.656-5.659s-2.527-5.697-5.656-5.697c-3.092 0-5.657 2.528-5.657 5.659 0 0.264 0.038 0.528 0.075 0.792l-11.162 5.168c-1.018-1.169-2.527-1.924-4.224-1.962-3.092 0-5.657 2.528-5.657 5.659s2.527 5.697 5.657 5.697c1.81 0 3.394-0.868 4.45-2.226l10.898 4.263c0 0.151-0.038 0.264-0.038 0.415 0 3.131 2.527 5.697 5.657 5.697 3.092 0 5.656-2.528 5.656-5.659-0.038-3.131-2.564-5.659-5.656-5.697z"></path>
</symbol>
<symbol id="icon-burger" viewBox="0 0 44 32">
<path stroke-linejoin="miter" stroke-linecap="round" stroke-miterlimit="4" stroke-width="3.3684" d="M1.684 3.043h40.421"></path>
<path stroke-linejoin="miter" stroke-linecap="round" stroke-miterlimit="4" stroke-width="3.3684" d="M1.684 16.516h40.421"></path>
<path stroke-linejoin="miter" stroke-linecap="round" stroke-miterlimit="4" stroke-width="3.3684" d="M1.684 29.99h40.421"></path>
</symbol>
<symbol id="icon-plus" viewBox="0 0 32 32">
<path d="M11.984 30.281v-11.492h-11.35v-6.668h11.35v-11.492h6.952v11.492h11.35v6.668h-11.35v11.492h-6.952z"></path>
</symbol>
<symbol id="icon-Arrow" viewBox="0 0 34 32">
<path d="M2 21.922c-1.148 0.663-1.541 2.131-0.878 3.278s2.131 1.541 3.278 0.878l-2.4-4.157zM33.231 8.621c0.343-1.28-0.417-2.596-1.697-2.939l-20.864-5.59c-1.28-0.343-2.596 0.417-2.939 1.697s0.417 2.596 1.697 2.939l18.546 4.969-4.969 18.546c-0.343 1.28 0.417 2.596 1.697 2.939s2.596-0.417 2.939-1.697l5.591-20.864zM4.4 26.078l27.713-16-2.4-4.157-27.713 16 2.4 4.157z"></path>
</symbol>
<symbol id="icon-Ellipse" viewBox="0 0 32 32">
<path d="M32 16c0 8.837-7.163 16-16 16s-16-7.163-16-16c0-8.837 7.163-16 16-16s16 7.163 16 16z"></path>
</symbol>
<symbol id="icon-linkedin" viewBox="0 0 32 32">
<path d="M0.598 32h6.579v-21.3h-6.579v21.3z"></path>
<path d="M0 3.9c0 2.1 1.695 3.8 3.888 3.8 2.093 0 3.788-1.7 3.788-3.8s-1.695-3.9-3.788-3.9c-2.193 0-3.888 1.8-3.888 3.9z"></path>
<path d="M25.321 32h6.679v-11.7c0-5.7-1.296-10.2-7.975-10.2-3.19 0-5.383 1.8-6.28 3.5h-0.1v-2.9h-6.28v21.3h6.579v-10.5c0-2.8 0.498-5.5 3.988-5.5 3.389 0 3.389 3.2 3.389 5.6v10.4z"></path>
</symbol>
<symbol id="icon-twitter" viewBox="0 0 38 32">
<path d="M34.125 8.757c1.471-1.103 2.794-2.426 3.824-3.971-1.324 0.588-2.868 1.029-4.412 1.176 1.617-0.956 2.794-2.426 3.382-4.265-1.471 0.882-3.162 1.544-4.853 1.912-1.471-1.544-3.456-2.426-5.662-2.426-4.265 0-7.721 3.456-7.721 7.721 0 0.588 0.074 1.176 0.221 1.765-6.397-0.368-12.132-3.456-15.956-8.088-0.662 1.103-1.029 2.426-1.029 3.897 0 2.647 1.324 5 3.456 6.397-1.25-0.074-2.5-0.368-3.529-0.956v0.073c0 3.75 2.647 6.838 6.176 7.574-0.588 0.147-1.324 0.294-1.985 0.294-0.515 0-0.956-0.073-1.471-0.147 0.956 3.088 3.824 5.294 7.206 5.368-2.647 2.059-5.956 3.309-9.559 3.309-0.662 0-1.25-0.073-1.838-0.147 3.382 2.206 7.426 3.456 11.838 3.456 14.191 0 21.912-11.691 21.912-21.912 0-0.368 0-0.662 0-1.029z"></path>
</symbol>
<symbol id="icon-star" viewBox="0 0 32 32">
<path d="M15.742 4.84l15.393-4.535-4.492 15.437 4.492 15.393-15.393-4.492-15.437 4.492 4.535-15.393-4.535-15.437 15.437 4.535z"></path>
</symbol>
</defs>
</svg>
