<svg aria-hidden="true" style="position: absolute; width: 0; height: 0; overflow: hidden;" version="1.1" xmlns="http://www.w3.org/2000/svg" xmlns:xlink="http://www.w3.org/1999/xlink">
<defs>
<symbol id="icon-logo" viewBox="0 0 196 32">
<path d="M15.999 4.92l15.645-4.609-4.565 15.69 4.565 15.645-15.645-4.565-15.69 4.565 4.609-15.645-4.609-15.69 15.69 4.609z"></path>
<path d="M43.484 27.556v-24.889h9.884c1.517 0 2.868 0.308 4.053 0.924 1.209 0.593 2.145 1.446 2.809 2.56 0.687 1.090 1.031 2.406 1.031 3.947v0.462c0 1.541-0.356 2.868-1.067 3.982-0.687 1.114-1.624 1.967-2.809 2.56s-2.524 0.889-4.018 0.889h-6.044v9.564h-3.84zM47.324 14.507h5.653c1.351 0 2.43-0.356 3.236-1.067s1.209-1.683 1.209-2.916v-0.356c0-1.256-0.403-2.24-1.209-2.951s-1.884-1.067-3.236-1.067h-5.653v8.356z"></path>
<path d="M72.742 28.053c-1.754 0-3.319-0.356-4.693-1.067-1.351-0.735-2.418-1.778-3.2-3.129s-1.173-2.951-1.173-4.8v-0.533c0-1.849 0.391-3.437 1.173-4.764 0.782-1.351 1.849-2.394 3.2-3.129 1.375-0.735 2.939-1.102 4.693-1.102s3.319 0.367 4.693 1.102c1.375 0.735 2.453 1.778 3.236 3.129 0.782 1.327 1.173 2.916 1.173 4.764v0.533c0 1.849-0.391 3.449-1.173 4.8s-1.861 2.394-3.236 3.129c-1.375 0.711-2.939 1.067-4.693 1.067zM72.742 24.782c1.612 0 2.916-0.51 3.911-1.529 1.019-1.043 1.529-2.477 1.529-4.302v-0.32c0-1.825-0.498-3.247-1.493-4.267-0.996-1.043-2.311-1.564-3.947-1.564-1.588 0-2.892 0.521-3.911 1.564-0.996 1.019-1.493 2.442-1.493 4.267v0.32c0 1.825 0.498 3.259 1.493 4.302 1.019 1.019 2.323 1.529 3.911 1.529z"></path>
<path d="M93.586 28.053c-2.228 0-4.077-0.498-5.547-1.493s-2.37-2.501-2.702-4.516l3.413-0.818c0.189 0.972 0.509 1.742 0.96 2.311s1.007 0.972 1.671 1.209c0.687 0.237 1.422 0.356 2.204 0.356 1.162 0 2.051-0.225 2.667-0.676 0.64-0.45 0.96-1.031 0.96-1.742s-0.296-1.233-0.889-1.564c-0.593-0.332-1.469-0.604-2.631-0.818l-1.209-0.213c-1.185-0.213-2.264-0.521-3.236-0.924s-1.742-0.96-2.311-1.671-0.853-1.624-0.853-2.738c0-1.659 0.616-2.939 1.849-3.84 1.233-0.924 2.868-1.387 4.907-1.387 1.967 0 3.58 0.45 4.836 1.351 1.28 0.877 2.109 2.074 2.489 3.591l-3.413 0.96c-0.213-1.067-0.664-1.813-1.351-2.24-0.687-0.45-1.54-0.676-2.56-0.676-0.996 0-1.778 0.19-2.347 0.569-0.569 0.356-0.853 0.865-0.853 1.529 0 0.711 0.273 1.233 0.818 1.564 0.569 0.332 1.327 0.581 2.276 0.747l1.244 0.213c1.256 0.213 2.406 0.51 3.449 0.889s1.86 0.924 2.453 1.636c0.616 0.711 0.924 1.659 0.924 2.844 0 1.754-0.652 3.117-1.956 4.089s-3.058 1.458-5.262 1.458z"></path>
<path d="M105.084 27.556v-17.529h3.662v17.529h-3.662zM106.933 7.644c-0.711 0-1.316-0.225-1.813-0.676-0.475-0.474-0.711-1.079-0.711-1.813s0.236-1.327 0.711-1.778c0.498-0.474 1.102-0.711 1.813-0.711 0.734 0 1.339 0.237 1.813 0.711 0.474 0.45 0.711 1.043 0.711 1.778s-0.237 1.339-0.711 1.813c-0.475 0.45-1.079 0.676-1.813 0.676z"></path>
<path d="M120.759 27.556c-1.067 0-1.92-0.32-2.56-0.96-0.616-0.64-0.924-1.493-0.924-2.56v-10.916h-4.836v-3.093h4.836v-5.796h3.662v5.796h5.227v3.093h-5.227v10.276c0 0.711 0.332 1.067 0.996 1.067h3.662v3.093h-4.836z"></path>
<path d="M130.466 27.556v-17.529h3.662v17.529h-3.662zM132.315 7.644c-0.711 0-1.316-0.225-1.813-0.676-0.474-0.474-0.711-1.079-0.711-1.813s0.237-1.327 0.711-1.778c0.498-0.474 1.102-0.711 1.813-0.711 0.735 0 1.34 0.237 1.813 0.711 0.475 0.45 0.711 1.043 0.711 1.778s-0.236 1.339-0.711 1.813c-0.474 0.45-1.078 0.676-1.813 0.676z"></path>
<path d="M143.617 27.556l-5.902-17.529h3.876l4.658 14.827h0.569l4.658-14.827h3.876l-5.902 17.529h-5.831z"></path>
<path d="M165.623 27.876c-1.327 0-2.512-0.296-3.556-0.889s-1.86-1.434-2.453-2.524c-0.592-1.090-0.889-2.394-0.889-3.911v-10.524h3.662v10.276c0 1.517 0.38 2.643 1.138 3.378 0.759 0.711 1.813 1.067 3.164 1.067 1.493 0 2.691-0.498 3.591-1.493 0.924-1.019 1.387-2.477 1.387-4.373v-8.853h3.662v17.529h-3.591v-2.631h-0.569c-0.332 0.711-0.924 1.387-1.778 2.027-0.853 0.616-2.109 0.924-3.769 0.924z"></path>
<path d="M187.926 28.053c-2.228 0-4.077-0.498-5.547-1.493s-2.371-2.501-2.702-4.516l3.413-0.818c0.189 0.972 0.509 1.742 0.96 2.311s1.007 0.972 1.671 1.209c0.687 0.237 1.422 0.356 2.204 0.356 1.161 0 2.050-0.225 2.667-0.676 0.64-0.45 0.96-1.031 0.96-1.742s-0.297-1.233-0.889-1.564c-0.593-0.332-1.47-0.604-2.631-0.818l-1.209-0.213c-1.186-0.213-2.264-0.521-3.236-0.924s-1.742-0.96-2.311-1.671-0.853-1.624-0.853-2.738c0-1.659 0.616-2.939 1.849-3.84 1.232-0.924 2.868-1.387 4.907-1.387 1.967 0 3.579 0.45 4.836 1.351 1.28 0.877 2.109 2.074 2.489 3.591l-3.413 0.96c-0.213-1.067-0.664-1.813-1.351-2.24-0.688-0.45-1.541-0.676-2.56-0.676-0.996 0-1.778 0.19-2.347 0.569-0.569 0.356-0.853 0.865-0.853 1.529 0 0.711 0.272 1.233 0.818 1.564 0.569 0.332 1.327 0.581 2.276 0.747l1.244 0.213c1.256 0.213 2.405 0.51 3.449 0.889s1.86 0.924 2.453 1.636c0.616 0.711 0.924 1.659 0.924 2.844 0 1.754-0.652 3.117-1.956 4.089s-3.058 1.458-5.262 1.458z"></path>
</symbol>
<symbol id="icon-location" viewBox="0 0 22 32">
<path d="M21.832 11.609c-0.209 5.093-8.82 16.998-10.873 19.785-0.21 0.293-0.649 0.272-0.838-0.042-1.299-2.096-5.594-9.138-7.835-14.839-0.901-2.264-1.467-4.317-1.404-5.764 0.23-5.785 5.112-10.291 10.894-10.060 5.782 0.272 10.287 5.135 10.056 10.92z"></path>
<path d="M14.745 14.587c1.873-1.874 1.873-4.913 0-6.788s-4.911-1.874-6.785 0-1.874 4.913 0 6.788c1.874 1.874 4.911 1.874 6.785 0z"></path>
</symbol>
<symbol id="icon-play" viewBox="0 0 34 32">
<path d="M6.335 29.392l-4.752-25.767c-0.226-1.32 0.98-2.414 2.263-2.075l28.094 7.96c1.433 0.415 1.772 2.264 0.603 3.169l-23.381 17.807c-1.018 0.83-2.564 0.264-2.828-1.094z"></path>
</symbol>
<symbol id="icon-share" viewBox="0 0 34 32">
<path d="M27.743 19.241c-1.81 0-3.394 0.868-4.45 2.226l-10.898-4.263c0-0.151 0.038-0.264 0.038-0.415 0-0.264-0.038-0.528-0.075-0.792l11.162-5.168c1.018 1.169 2.527 1.924 4.224 1.962 3.092 0 5.656-2.528 5.656-5.659s-2.527-5.697-5.656-5.697c-3.092 0-5.657 2.528-5.657 5.659 0 0.264 0.038 0.528 0.075 0.792l-11.162 5.168c-1.018-1.169-2.527-1.924-4.224-1.962-3.092 0-5.657 2.528-5.657 5.659s2.527 5.697 5.657 5.697c1.81 0 3.394-0.868 4.45-2.226l10.898 4.263c0 0.151-0.038 0.264-0.038 0.415 0 3.131 2.527 5.697 5.657 5.697 3.092 0 5.656-2.528 5.656-5.659-0.038-3.131-2.564-5.659-5.656-5.697z"></path>
</symbol>
<symbol id="icon-burger" viewBox="0 0 44 32">
<path stroke-linejoin="miter" stroke-linecap="round" stroke-miterlimit="4" stroke-width="3.3684" d="M1.684 3.043h40.421"></path>
<path stroke-linejoin="miter" stroke-linecap="round" stroke-miterlimit="4" stroke-width="3.3684" d="M1.684 16.516h40.421"></path>
<path stroke-linejoin="miter" stroke-linecap="round" stroke-miterlimit="4" stroke-width="3.3684" d="M1.684 29.99h40.421"></path>
</symbol>
<symbol id="icon-plus" viewBox="0 0 32 32">
<path d="M11.984 30.281v-11.492h-11.35v-6.668h11.35v-11.492h6.952v11.492h11.35v6.668h-11.35v11.492h-6.952z"></path>
</symbol>
<symbol id="icon-arrow" viewBox="0 0 34 32">
<path d="M2 21.922c-1.148 0.663-1.541 2.131-0.878 3.278s2.131 1.541 3.278 0.878l-2.4-4.157zM33.231 8.621c0.343-1.28-0.417-2.596-1.697-2.939l-20.864-5.59c-1.28-0.343-2.596 0.417-2.939 1.697s0.417 2.596 1.697 2.939l18.546 4.969-4.969 18.546c-0.343 1.28 0.417 2.596 1.697 2.939s2.596-0.417 2.939-1.697l5.591-20.864zM4.4 26.078l27.713-16-2.4-4.157-27.713 16 2.4 4.157z"></path>
</symbol>
<symbol id="icon-ellipse" viewBox="0 0 32 32">
<path d="M32 16c0 8.837-7.163 16-16 16s-16-7.163-16-16c0-8.837 7.163-16 16-16s16 7.163 16 16z"></path>
</symbol>
<symbol id="icon-linkedin" viewBox="0 0 32 32">
<path d="M0.598 32h6.579v-21.3h-6.579v21.3z"></path>
<path d="M0 3.9c0 2.1 1.695 3.8 3.888 3.8 2.093 0 3.788-1.7 3.788-3.8s-1.695-3.9-3.788-3.9c-2.193 0-3.888 1.8-3.888 3.9z"></path>
<path d="M25.321 32h6.679v-11.7c0-5.7-1.296-10.2-7.975-10.2-3.19 0-5.383 1.8-6.28 3.5h-0.1v-2.9h-6.28v21.3h6.579v-10.5c0-2.8 0.498-5.5 3.988-5.5 3.389 0 3.389 3.2 3.389 5.6v10.4z"></path>
</symbol>
<symbol id="icon-twitter" viewBox="0 0 38 32">
<path d="M34.125 8.757c1.471-1.103 2.794-2.426 3.824-3.971-1.324 0.588-2.868 1.029-4.412 1.176 1.617-0.956 2.794-2.426 3.382-4.265-1.471 0.882-3.162 1.544-4.853 1.912-1.471-1.544-3.456-2.426-5.662-2.426-4.265 0-7.721 3.456-7.721 7.721 0 0.588 0.074 1.176 0.221 1.765-6.397-0.368-12.132-3.456-15.956-8.088-0.662 1.103-1.029 2.426-1.029 3.897 0 2.647 1.324 5 3.456 6.397-1.25-0.074-2.5-0.368-3.529-0.956v0.073c0 3.75 2.647 6.838 6.176 7.574-0.588 0.147-1.324 0.294-1.985 0.294-0.515 0-0.956-0.073-1.471-0.147 0.956 3.088 3.824 5.294 7.206 5.368-2.647 2.059-5.956 3.309-9.559 3.309-0.662 0-1.25-0.073-1.838-0.147 3.382 2.206 7.426 3.456 11.838 3.456 14.191 0 21.912-11.691 21.912-21.912 0-0.368 0-0.662 0-1.029z"></path>
</symbol>
<symbol id="icon-star" viewBox="0 0 32 32">
<path d="M15.742 4.84l15.393-4.535-4.492 15.437 4.492 15.393-15.393-4.492-15.437 4.492 4.535-15.393-4.535-15.437 15.437 4.535z"></path>
</symbol>
</defs>
</svg>
